# Blender 3.3.1
# www.blender.org
mtllib bomb.mtl
o Icosphere
v 0.000000 -3.082876 0.000000
v 2.230769 -1.378708 1.620730
v -0.852061 -1.378708 2.622418
v -2.757401 -1.378708 0.000000
v -0.852061 -1.378708 -2.622418
v 2.230769 -1.378708 -1.620730
v 0.852061 1.378708 2.622418
v -2.230769 1.378708 1.620730
v -2.230769 1.378708 -1.620730
v 0.852061 1.378708 -2.622418
v 2.757401 1.378708 0.000000
v 0.000000 3.082876 0.000000
v 1.474503 0.720702 -1.000000
v 4.793032 2.342721 -0.000000
v 0.000000 1.641210 -1.000000
v 1.094207 1.498760 0.500000
v 0.866025 1.641210 0.500000
v 1.854799 -0.057356 0.500000
v -0.866025 1.641210 0.500000
v 0.000000 5.334931 0.000000
v -1.603277 0.720702 -0.776957
v -2.396516 2.342720 -4.150887
v -0.114091 1.498760 -1.197611
v -0.494387 -0.057356 -1.856303
v 0.128774 0.720702 1.776957
v -2.396515 2.342720 4.150888
v -0.980116 1.498760 0.697611
v -1.360412 -0.057356 1.356304
v -0.128774 -0.720702 -1.776957
v 2.396515 -2.342721 -4.150887
v -0.866025 -1.641210 -0.500000
v 0.980116 -1.498760 -0.697611
v 0.866025 -1.641210 -0.500000
v 1.360412 0.057356 -1.356304
v 0.000000 -1.641210 1.000000
v 0.000000 -5.334931 0.000000
v -1.474503 -0.720702 1.000000
v -4.793032 -2.342720 0.000001
v -1.094207 -1.498760 -0.500000
v -1.854799 0.057356 -0.500000
v 1.603277 -0.720702 0.776957
v 2.396517 -2.342720 4.150887
v 0.114091 -1.498760 1.197611
v 0.494388 0.057356 1.856303
vn 0.1876 -0.7947 0.5774
vn 0.6071 -0.7947 -0.0000
vn -0.4911 -0.7947 0.3568
vn -0.4911 -0.7947 -0.3568
vn 0.1876 -0.7947 -0.5774
vn 0.9822 -0.1876 -0.0000
vn 0.3035 -0.1876 0.9342
vn -0.7946 -0.1876 0.5774
vn -0.7946 -0.1876 -0.5774
vn 0.3035 -0.1876 -0.9342
vn 0.7946 0.1876 0.5774
vn -0.3035 0.1876 0.9342
vn -0.9822 0.1876 -0.0000
vn -0.3035 0.1876 -0.9342
vn 0.7946 0.1876 -0.5774
vn 0.4911 0.7947 0.3568
vn -0.1876 0.7947 0.5774
vn -0.6071 0.7947 -0.0000
vn -0.1876 0.7947 -0.5774
vn 0.4911 0.7947 -0.3568
vn -0.8984 -0.4391 -0.0000
vn -0.2563 0.8299 -0.4955
vn 0.8582 0.1341 -0.4955
vn 0.1205 0.0589 0.9910
vn -0.0000 -1.0000 -0.0000
vn -0.0000 0.1341 0.9910
vn 0.4974 -0.7121 -0.4955
vn 0.4492 -0.4391 0.7781
vn -0.8582 0.1341 -0.4955
vn -0.3009 0.8299 0.4697
vn 0.7979 0.0589 -0.5999
vn -0.6778 -0.7121 -0.1830
vn 0.4492 -0.4391 -0.7781
vn 0.5573 0.8299 0.0257
vn -0.9185 0.0589 -0.3911
vn 0.1804 -0.7121 0.6785
vt 0.181819 0.000000
vt 0.363637 0.000000
vt 0.909091 0.000000
vt 0.727273 0.000000
vt 0.545455 0.000000
vt 0.272728 0.157461
vt 1.000000 0.157461
vt 0.090910 0.157461
vt 0.818182 0.157461
vt 0.636364 0.157461
vt 0.454546 0.157461
vt 0.181819 0.314921
vt 0.000000 0.314921
vt 0.909091 0.314921
vt 0.727273 0.314921
vt 0.545455 0.314921
vt 0.363637 0.314921
vt 0.272728 0.472382
vt 0.090910 0.472382
vt 0.818182 0.472382
vt 0.636364 0.472382
vt 0.454546 0.472382
vt 0.750000 0.490000
vt 0.250000 0.490000
vt 0.250000 0.250000
vt 0.750000 0.490000
vt 0.250000 0.490000
vt 0.542154 0.130000
vt 0.042154 0.130000
vt 0.957846 0.130000
vt 0.457846 0.130000
vt 0.957846 0.130000
vt 0.457846 0.130000
vt 0.542154 0.130000
vt 0.042154 0.130000
vt 0.250000 0.250000
vt 0.750000 0.490000
vt 0.250000 0.490000
vt 0.250000 0.250000
vt 0.542154 0.130000
vt 0.042154 0.130000
vt 0.957846 0.130000
vt 0.457846 0.130000
vt 0.750000 0.490000
vt 0.250000 0.490000
vt 0.250000 0.250000
vt 0.542154 0.130000
vt 0.042154 0.130000
vt 0.957846 0.130000
vt 0.457846 0.130000
vt 0.750000 0.490000
vt 0.250000 0.490000
vt 0.250000 0.250000
vt 0.750000 0.490000
vt 0.250000 0.490000
vt 0.542154 0.130000
vt 0.042154 0.130000
vt 0.957846 0.130000
vt 0.457846 0.130000
vt 0.957846 0.130000
vt 0.457846 0.130000
vt 0.542154 0.130000
vt 0.042154 0.130000
vt 0.250000 0.250000
vt 0.750000 0.490000
vt 0.250000 0.490000
vt 0.250000 0.250000
vt 0.542154 0.130000
vt 0.042154 0.130000
vt 0.957846 0.130000
vt 0.457846 0.130000
vt 0.750000 0.490000
vt 0.250000 0.490000
vt 0.250000 0.250000
vt 0.542154 0.130000
vt 0.042154 0.130000
vt 0.957846 0.130000
vt 0.457846 0.130000
s 0
f 1/1/1 2/6/1 3/8/1
f 2/6/2 1/2/2 6/11/2
f 1/3/3 3/7/3 4/9/3
f 1/4/4 4/9/4 5/10/4
f 1/5/5 5/10/5 6/11/5
f 2/6/6 6/11/6 11/17/6
f 3/8/7 2/6/7 7/12/7
f 4/9/8 3/7/8 8/14/8
f 5/10/9 4/9/9 9/15/9
f 6/11/10 5/10/10 10/16/10
f 2/6/11 11/17/11 7/12/11
f 3/8/12 7/12/12 8/13/12
f 4/9/13 8/14/13 9/15/13
f 5/10/14 9/15/14 10/16/14
f 6/11/15 10/16/15 11/17/15
f 7/12/16 11/17/16 12/18/16
f 8/13/17 7/12/17 12/19/17
f 9/15/18 8/14/18 12/20/18
f 10/16/19 9/15/19 12/21/19
f 11/17/20 10/16/20 12/22/20
f 13/23/21 18/32/21 16/28/21
f 16/29/22 14/25/22 13/24/22
f 15/27/23 20/36/23 17/31/23
f 18/33/24 14/25/24 16/29/24
f 15/26/25 17/30/25 19/34/25
f 17/31/26 20/36/26 19/35/26
f 13/24/27 14/25/27 18/33/27
f 21/37/28 24/42/28 23/40/28
f 19/35/29 20/36/29 15/27/29
f 23/41/30 22/39/30 21/38/30
f 24/43/31 22/39/31 23/41/31
f 21/38/32 22/39/32 24/43/32
f 25/44/33 28/49/33 27/47/33
f 27/48/34 26/46/34 25/45/34
f 28/50/35 26/46/35 27/48/35
f 25/45/36 26/46/36 28/50/36
f 29/51/33 34/60/33 32/56/33
f 32/57/34 30/53/34 29/52/34
f 31/55/26 36/64/26 33/59/26
f 34/61/35 30/53/35 32/57/35
f 31/54/25 33/58/25 35/62/25
f 33/59/29 36/64/29 35/63/29
f 29/52/36 30/53/36 34/61/36
f 37/65/21 40/70/21 39/68/21
f 35/63/23 36/64/23 31/55/23
f 39/69/22 38/67/22 37/66/22
f 40/71/24 38/67/24 39/69/24
f 37/66/27 38/67/27 40/71/27
f 41/72/28 44/77/28 43/75/28
f 43/76/30 42/74/30 41/73/30
f 44/78/31 42/74/31 43/76/31
f 41/73/32 42/74/32 44/78/32
