# Blender 3.3.1
# www.blender.org
mtllib chunk_outline.mtl
o Cube
v 0.000719 0.000719 -0.000719
v 0.000719 0.999281 -0.000719
v 0.000719 0.000719 -0.999281
v 0.000719 0.999281 -0.999281
v 0.000719 0.011267 -0.011267
v 0.000719 0.988733 -0.011267
v 0.000719 0.011267 -0.988733
v 0.000719 0.988733 -0.988733
v 0.999281 0.000719 -0.000719
v 0.999281 0.999281 -0.000719
v 0.000719 0.000719 -0.000719
v 0.000719 0.999281 -0.000719
v 0.988733 0.011267 -0.000719
v 0.988733 0.988733 -0.000719
v 0.011267 0.011267 -0.000719
v 0.011267 0.988733 -0.000719
v 0.999281 0.000719 -0.999281
v 0.999281 0.000719 -0.000719
v 0.000719 0.000719 -0.999281
v 0.000719 0.000719 -0.000719
v 0.988733 0.000719 -0.988731
v 0.988733 0.000719 -0.011270
v 0.011267 0.000719 -0.988731
v 0.011267 0.000719 -0.011270
v 0.999281 0.999281 -0.999281
v 0.000719 0.999281 -0.999281
v 0.999281 0.999281 -0.000719
v 0.000719 0.999281 -0.000719
v 0.988733 0.999281 -0.988730
v 0.011267 0.999281 -0.988731
v 0.988733 0.999281 -0.011270
v 0.011267 0.999281 -0.011270
v 0.999281 0.000719 -0.999281
v 0.000719 0.000719 -0.999281
v 0.999281 0.999281 -0.999281
v 0.000719 0.999281 -0.999281
v 0.988733 0.011267 -0.999281
v 0.011267 0.011267 -0.999281
v 0.988733 0.988733 -0.999281
v 0.011267 0.988733 -0.999281
v 0.999281 0.000719 -0.000719
v 0.999281 0.000719 -0.999281
v 0.999281 0.999281 -0.000719
v 0.999281 0.999281 -0.999281
v 0.999281 0.011267 -0.011267
v 0.999281 0.011267 -0.988733
v 0.999281 0.988733 -0.011267
v 0.999281 0.988733 -0.988733
vn -1.0000 -0.0000 -0.0000
vn -0.0000 -0.0000 1.0000
vn -0.0000 -1.0000 -0.0000
vn -0.0000 1.0000 -0.0000
vn -0.0000 -0.0000 -1.0000
vn 1.0000 -0.0000 -0.0000
vt 0.999404 0.001003
vt 0.999404 0.001003
vt 0.999404 0.001003
vt 0.999404 0.001003
vt 0.999404 0.001003
vt 0.999404 0.001003
vt 0.999404 0.001003
vt 0.999404 0.001003
vt 0.999404 0.001003
vt 0.999404 0.001003
vt 0.999404 0.001003
vt 0.999404 0.001003
vt 0.999404 0.001003
vt 0.999404 0.001003
vt 0.999404 0.001003
vt 0.999404 0.001003
vt 0.999404 0.001003
vt 0.999404 0.001003
vt 0.999404 0.001003
vt 0.999404 0.001003
vt 0.999404 0.001003
vt 0.999404 0.001003
vt 0.999404 0.001003
vt 0.999404 0.001003
vt 0.999404 0.001003
vt 0.999404 0.001003
vt 0.999404 0.001003
vt 0.999404 0.001003
vt 0.999404 0.001003
vt 0.999404 0.001003
vt 0.999404 0.001003
vt 0.999404 0.001003
vt 0.999404 0.001003
vt 0.999404 0.001003
vt 0.999404 0.001003
vt 0.999404 0.001003
vt 0.999404 0.001003
vt 0.999404 0.001003
vt 0.999404 0.001003
vt 0.999404 0.001003
vt 0.999404 0.001003
vt 0.999404 0.001003
vt 0.999404 0.001003
vt 0.999404 0.001003
vt 0.999404 0.001003
vt 0.999404 0.001003
vt 0.999404 0.001003
vt 0.999404 0.001003
s 0
f 4/4/1 3/3/1 7/7/1 8/8/1
f 1/1/1 2/2/1 6/6/1 5/5/1
f 2/2/1 4/4/1 8/8/1 6/6/1
f 3/3/1 1/1/1 5/5/1 7/7/1
f 12/12/2 11/11/2 15/15/2 16/16/2
f 9/9/2 10/10/2 14/14/2 13/13/2
f 10/10/2 12/12/2 16/16/2 14/14/2
f 11/11/2 9/9/2 13/13/2 15/15/2
f 20/20/3 19/19/3 23/23/3 24/24/3
f 17/17/3 18/18/3 22/22/3 21/21/3
f 18/18/3 20/20/3 24/24/3 22/22/3
f 19/19/3 17/17/3 21/21/3 23/23/3
f 28/28/4 27/27/4 31/31/4 32/32/4
f 25/25/4 26/26/4 30/30/4 29/29/4
f 26/26/4 28/28/4 32/32/4 30/30/4
f 27/27/4 25/25/4 29/29/4 31/31/4
f 36/36/5 35/35/5 39/39/5 40/40/5
f 33/33/5 34/34/5 38/38/5 37/37/5
f 34/34/5 36/36/5 40/40/5 38/38/5
f 35/35/5 33/33/5 37/37/5 39/39/5
f 44/44/6 43/43/6 47/47/6 48/48/6
f 41/41/6 42/42/6 46/46/6 45/45/6
f 42/42/6 44/44/6 48/48/6 46/46/6
f 43/43/6 41/41/6 45/45/6 47/47/6
