# Blender 3.3.1
# www.blender.org
mtllib pistol.mtl
o Cylinder
v -0.000000 1.000000 -0.839067
v -0.000001 0.774333 -6.130278
v -0.866026 0.500000 -0.839066
v -0.670593 0.387167 -6.130278
v -0.866026 -0.500000 -0.839066
v -0.670593 -0.387167 -6.130278
v -0.000000 -1.000000 -0.839066
v -0.000001 -0.774333 -6.130278
v 0.866025 -0.500000 -0.839066
v 0.670591 -0.387167 -6.130278
v 0.866025 0.500000 -0.839066
v 0.670591 0.387167 -6.130278
v 1.000000 -1.366618 -1.000000
v 1.000000 1.366618 -1.000000
v 1.000000 -0.606090 3.483463
v 1.000000 0.591540 3.483463
v -1.000000 -1.366618 -1.000000
v -1.000000 1.366618 -1.000000
v -1.000000 -0.606090 3.483463
v -1.000000 0.591540 3.483463
v 0.628256 -0.086061 0.741793
v 0.656377 -4.784557 2.300935
v 0.619385 0.535463 2.642725
v 0.647506 -4.163034 4.201867
v -0.640199 -0.125352 0.742205
v -0.612078 -4.823848 2.301348
v -0.649069 0.496172 2.643137
v -0.620948 -4.202325 4.202280
v -0.097907 -0.151224 -4.369614
v -0.097907 1.193662 -4.369614
v -0.240264 -0.151224 -6.027141
v -0.240264 1.506303 -6.027141
v 0.097907 -0.151224 -4.369614
v 0.097907 1.193662 -4.369614
v 0.240264 -0.151224 -6.027141
v 0.240264 1.506303 -6.027141
vn -0.4997 0.8654 -0.0369
vn -0.9993 -0.0000 -0.0369
vn -0.4997 -0.8654 -0.0369
vn 0.4997 -0.8654 -0.0369
vn -0.0000 -0.0000 -1.0000
vn 0.9993 -0.0000 -0.0369
vn 0.4997 0.8654 -0.0369
vn -0.0000 -0.0000 1.0000
vn 1.0000 -0.0000 -0.0000
vn -1.0000 -0.0000 -0.0000
vn -0.0000 -0.9859 0.1672
vn -0.0000 0.9854 0.1703
vn 0.0295 -0.9500 0.3108
vn 0.0094 -0.3149 -0.9491
vn -0.0295 0.9500 -0.3108
vn -1.0000 -0.0068 -0.0024
vn -0.0094 0.3149 0.9491
vn 1.0000 0.0068 0.0024
vn -0.9963 -0.0000 0.0856
vn 0.9963 -0.0000 0.0856
vn -0.0000 -1.0000 -0.0000
vn -0.0000 0.9827 0.1854
vt 0.246251 0.708881
vt 0.133562 0.821888
vt 0.724858 0.759998
vt 0.246251 0.357070
vt 0.304486 0.706533
vt 0.968707 0.386314
vt 0.076065 0.855460
vt 0.304486 0.354722
vt 0.968707 0.739049
vt 0.667361 0.726426
vt 0.902043 0.386314
vt 0.457264 0.740459
vt 0.018569 0.822472
vt 0.902043 0.739049
vt 0.457264 0.390681
vt 0.609865 0.759415
vt 0.514727 0.736092
vt 0.018569 0.755911
vt 0.514727 0.386313
vt 0.609865 0.825975
vt 0.572727 0.740339
vt 0.341624 0.707331
vt 0.076065 0.722340
vt 0.572727 0.390561
vt 0.667361 0.859547
vt 0.341624 0.354595
vt 0.408288 0.707331
vt 0.189033 0.706406
vt 0.133562 0.755328
vt 0.724858 0.826559
vt 0.408288 0.354595
vt 0.189033 0.354595
vt 0.200778 0.317457
vt 0.322361 0.927200
vt 0.743190 0.386355
vt 0.018569 0.317457
vt 0.322361 0.746020
vt 0.627728 0.018569
vt 0.150079 0.018569
vt 0.902043 0.776215
vt 0.743190 0.689288
vt 0.070240 0.018569
vt 0.981431 0.776188
vt 0.627728 0.312937
vt 0.237917 0.317457
vt 0.189033 0.927245
vt 0.609865 0.386314
vt 0.420126 0.317457
vt 0.189033 0.746065
vt 0.761041 0.019073
vt 0.902043 0.909543
vt 0.288616 0.018569
vt 0.609865 0.689247
vt 0.981431 0.909516
vt 0.368455 0.018569
vt 0.761041 0.313441
vt 0.882756 0.018569
vt 0.864905 0.877394
vt 0.018569 0.354595
vt 0.752608 0.975335
vt 0.882756 0.341064
vt 0.018569 0.684616
vt 0.864905 0.748004
vt 0.780328 0.386314
vt 0.151895 0.355180
vt 0.621591 0.975335
vt 0.780328 0.708808
vt 0.151895 0.685201
vt 0.798179 0.020626
vt 0.780314 0.877490
vt 0.457264 0.349175
vt 0.752665 0.890756
vt 0.798179 0.343121
vt 0.457264 0.019155
vt 0.780314 0.748099
vt 0.590590 0.348590
vt 0.864905 0.388371
vt 0.621648 0.890756
vt 0.590590 0.018569
vt 0.864905 0.710865
vt 0.341246 0.914289
vt 0.596293 0.914288
vt 0.532531 0.978050
vt 0.341246 0.850527
vt 0.596293 0.850527
vt 0.532531 0.786765
vt 0.405007 0.914289
vt 0.468769 0.978050
vt 0.405007 0.850527
vt 0.468769 0.786765
vt 0.532531 0.914288
vt 0.532531 0.850527
vt 0.468769 0.914288
vt 0.468769 0.850527
s 0
usemtl Material.001
f 1/1/1 2/4/1 4/8/1 3/5/1
f 3/6/2 4/9/2 6/14/2 5/11/2
f 5/12/3 6/15/3 8/19/3 7/17/3
f 7/17/4 8/19/4 10/24/4 9/21/4
f 4/10/5 2/3/5 12/30/5 10/25/5 8/20/5 6/16/5
f 9/22/6 10/26/6 12/31/6 11/27/6
f 11/28/7 12/32/7 2/4/7 1/1/7
f 1/2/8 3/7/8 5/13/8 7/18/8 9/23/8 11/29/8
f 13/33/9 14/36/9 16/42/9 15/39/9
f 15/40/8 16/43/8 20/54/8 19/51/8
f 19/52/10 20/55/10 18/48/10 17/45/10
f 17/46/5 18/49/5 14/37/5 13/34/5
f 15/41/11 19/53/11 17/47/11 13/35/11
f 20/56/12 16/44/12 14/38/12 18/50/12
f 26/72/13 22/60/13 24/66/13 28/78/13
f 26/73/14 25/69/14 21/57/14 22/61/14
f 21/58/15 25/70/15 27/75/15 23/63/15
f 28/79/16 27/76/16 25/71/16 26/74/16
f 24/67/17 23/64/17 27/77/17 28/80/17
f 22/62/18 21/59/18 23/65/18 24/68/18
f 29/81/19 30/84/19 32/89/19 31/87/19
f 31/87/5 32/89/5 36/94/5 35/93/5
f 35/93/20 36/94/20 34/92/20 33/91/20
f 33/91/8 34/92/8 30/85/8 29/82/8
f 31/88/21 35/93/21 33/91/21 29/83/21
f 36/94/22 32/90/22 30/86/22 34/92/22
