# Blender 3.3.1
# www.blender.org
mtllib shell.mtl
o Cylinder
v -0.766239 -0.264570 -0.442388
v -0.766239 -0.634925 -0.442388
v 0.000000 -0.264570 0.884776
v -0.766239 -0.264570 0.442388
v 0.000000 -0.634925 0.884776
v -0.766239 -0.634925 0.442388
v 0.766239 -0.264570 0.442388
v 0.766239 -0.634925 0.442388
v 0.766239 -0.264570 -0.442388
v 0.766239 -0.634925 -0.442388
v 0.000000 -0.264570 -0.884776
v 0.000000 -0.634925 -0.884776
v 0.000000 -0.327284 -0.834053
v 0.000000 2.017269 -0.834053
v 0.722311 -0.327284 -0.417027
v 0.722311 2.017269 -0.417027
v 0.722311 -0.327284 0.417027
v 0.722311 2.017269 0.417027
v -0.722311 -0.327284 0.417027
v 0.000000 -0.327284 0.834053
v -0.722311 2.017269 0.417027
v 0.000000 2.017269 0.834053
v -0.929245 -0.650630 -0.536500
v -0.929245 -0.815982 -0.536500
v 0.000000 -0.650630 1.072999
v -0.929245 -0.650630 0.536500
v 0.000000 -0.815982 1.072999
v -0.929245 -0.815982 0.536500
v 0.929245 -0.650630 0.536500
v 0.929245 -0.815982 0.536500
v 0.929245 -0.650630 -0.536500
v 0.929245 -0.815982 -0.536500
v 0.000000 -0.650630 -1.072999
v 0.000000 -0.815982 -1.072999
v -0.722311 -0.327284 -0.417027
v -0.722311 2.017269 -0.417027
vn -0.5000 -0.0000 0.8660
vn 0.5000 -0.0000 -0.8660
vn -0.0000 1.0000 -0.0000
vn 1.0000 -0.0000 -0.0000
vn -0.5000 -0.0000 -0.8660
vn -0.0000 -1.0000 -0.0000
vn 0.5000 -0.0000 0.8660
vn -1.0000 -0.0000 -0.0000
vt 0.820642 0.603957
vt 0.714192 0.014488
vt 0.067134 0.715242
vt 0.873657 0.603957
vt 0.490308 0.540631
vt 0.120148 0.715242
vt 0.738652 0.413980
vt 0.823875 0.204465
vt 0.738652 0.350654
vt 0.823875 0.077814
vt 0.067134 0.841893
vt 0.709675 0.540631
vt 0.791666 0.413980
vt 0.791666 0.350654
vt 0.599992 0.603957
vt 0.120148 0.841893
vt 0.738652 0.540631
vt 0.714192 0.267791
vt 0.709675 0.413980
vt 0.791666 0.540631
vt 0.820642 0.413980
vt 0.738652 0.603957
vt 0.604508 0.204465
vt 0.873657 0.413980
vt 0.791666 0.603957
vt 0.599992 0.350654
vt 0.820642 0.540631
vt 0.604508 0.077814
vt 0.873657 0.540631
vt 0.490308 0.413980
vt 0.972242 0.014488
vt 0.490308 0.692628
vt 0.014488 0.350654
vt 0.726075 0.692628
vt 0.972242 0.350100
vt 0.014488 0.686265
vt 0.852852 0.014488
vt 0.593704 0.632933
vt 0.461332 0.350654
vt 0.726075 0.812019
vt 0.852852 0.350100
vt 0.461332 0.686265
vt 0.697099 0.692628
vt 0.401637 0.350654
vt 0.829471 0.871714
vt 0.401637 0.686265
vt 0.593704 0.871714
vt 0.193574 0.350654
vt 0.282246 0.350654
vt 0.697099 0.812019
vt 0.253270 0.350654
vt 0.932866 0.692628
vt 0.193574 0.686265
vt 0.932866 0.812019
vt 0.282246 0.686265
vt 0.253269 0.686265
vt 0.147505 0.014488
vt 0.961843 0.709731
vt 0.309498 0.244880
vt 0.985512 0.709731
vt 0.280522 0.244880
vt 0.038158 0.945634
vt 0.961843 0.940122
vt 0.280522 0.091285
vt 0.961843 0.863325
vt 0.575532 0.244880
vt 0.014488 0.945634
vt 0.985512 0.940122
vt 0.442515 0.321677
vt 0.985512 0.863325
vt 0.147505 0.321677
vt 0.038158 0.792039
vt 0.575532 0.091285
vt 0.014488 0.792039
vt 0.014488 0.244880
vt 0.149125 0.715242
vt 0.038158 0.715242
vt 0.442515 0.014488
vt 0.172794 0.715242
vt 0.014488 0.715242
vt 0.014488 0.091285
vt 0.961843 0.632933
vt 0.149125 0.868836
vt 0.309498 0.091285
vt 0.985512 0.632933
vt 0.172794 0.868836
vt 0.490308 0.812019
vt 0.074184 0.350654
vt 0.829471 0.632933
vt 0.074184 0.686265
s 0
usemtl Material.001
f 5/13/1 3/7/1 4/9/1 6/14/1
f 12/29/2 11/27/2 9/21/2 10/24/2
f 33/81/3 23/57/3 26/64/3 25/61/3 29/71/3 31/75/3
f 10/25/4 9/22/4 7/17/4 8/20/4
f 2/4/5 1/1/5 11/27/5 12/29/5
f 6/15/6 2/5/6 12/30/6 10/26/6 8/19/6 5/12/6
f 8/20/7 7/17/7 3/7/7 5/13/7
f 14/34/3 36/89/3 21/52/3 22/54/3 18/45/3 16/40/3
f 19/48/8 21/53/8 36/90/8 35/88/8
f 17/44/7 18/46/7 22/55/7 20/49/7
f 28/70/8 26/65/8 23/58/8 24/60/8
f 28/69/6 24/59/6 34/84/6 32/78/6 30/73/6 27/66/6
f 30/74/7 29/72/7 25/62/7 27/67/7
f 27/68/1 25/63/1 26/65/1 28/70/1
f 24/60/5 23/58/5 33/82/5 34/85/5
f 13/31/2 14/35/2 16/41/2 15/37/2
f 19/47/6 35/87/6 13/32/6 15/38/6 17/43/6 20/50/6
f 11/28/3 1/2/3 4/10/3 3/8/3 7/18/3 9/23/3
f 34/86/2 33/83/2 31/76/2 32/79/2
f 6/16/8 4/11/8 1/3/8 2/6/8
f 15/39/4 16/42/4 18/46/4 17/44/4
f 20/51/1 22/56/1 21/53/1 19/48/1
f 32/80/4 31/77/4 29/72/4 30/74/4
f 35/88/5 36/90/5 14/36/5 13/33/5
