# Blender 3.3.1
# www.blender.org
mtllib shotgun.mtl
o Cylinder
v -0.000000 1.000000 -0.839067
v -0.000001 1.000000 -11.399571
v -0.866026 0.500000 -0.839066
v -0.866026 0.500000 -11.399571
v -0.866026 -0.500000 -0.839066
v -0.866026 -0.500000 -11.399571
v -0.000000 -1.000000 -0.839066
v -0.000001 -1.000000 -11.399570
v 0.866025 -0.500000 -0.839066
v 0.866024 -0.500000 -11.399571
v 0.866025 0.500000 -0.839066
v 0.866024 0.500000 -11.399571
v -0.000000 0.400784 -3.798309
v -0.000001 0.400784 -10.955823
v -1.392611 -0.403240 -3.798308
v -1.392612 -0.403240 -10.955823
v -1.392611 -1.292416 -3.798308
v -1.392612 -1.292416 -10.955823
v -0.000000 -2.096440 -3.798308
v -0.000001 -2.096440 -10.955822
v 1.392610 -1.292416 -3.798308
v 1.392610 -1.292416 -10.955823
v 1.392610 -0.403240 -3.798308
v 1.392610 -0.403240 -10.955823
v 1.000000 -1.366618 -1.000000
v 1.000000 1.366618 -1.000000
v 1.000000 -0.606090 3.483463
v 1.000000 1.366618 3.483463
v -1.000000 -1.366618 -1.000000
v -1.000000 1.366618 -1.000000
v -1.000000 -0.606090 3.483463
v -1.000000 1.366618 3.483463
v 0.480782 -3.045848 5.987515
v 0.480781 -0.764672 2.033463
v 0.480782 -1.046309 6.030435
v 0.480781 1.000147 2.974429
v -0.480780 -3.045848 5.987515
v -0.480781 -0.764672 2.033463
v -0.480780 -1.046309 6.030435
v -0.480781 1.000147 2.974429
v 0.480782 -0.120663 10.208820
v 0.480782 -3.188286 11.280109
v -0.480780 -0.120663 10.208820
v -0.480780 -3.188286 11.280109
vn -0.5000 0.8660 -0.0000
vn -1.0000 -0.0000 -0.0000
vn -0.5000 -0.8660 -0.0000
vn 0.5000 -0.8660 -0.0000
vn -0.0000 -0.0000 -1.0000
vn 1.0000 -0.0000 -0.0000
vn 0.5000 0.8660 -0.0000
vn -0.0000 -0.0000 1.0000
vn -0.0000 -0.9859 0.1672
vn -0.0000 1.0000 -0.0000
vn -0.0000 0.8309 0.5564
vn -0.0000 -0.8662 -0.4997
vn -0.0000 -0.9996 -0.0269
vn -0.0000 0.4705 -0.8824
vn -0.0000 0.3297 0.9441
vn -0.0000 0.9763 -0.2163
vt 0.436277 0.018311
vt 0.347038 0.918415
vt 0.216553 0.924425
vt 0.436277 0.476440
vt 0.398678 0.019174
vt 0.903319 0.018311
vt 0.309537 0.940217
vt 0.398678 0.477303
vt 0.903319 0.476802
vt 0.216553 0.881088
vt 0.859903 0.018311
vt 0.585697 0.019545
vt 0.272036 0.918641
vt 0.859903 0.476802
vt 0.585697 0.477295
vt 0.179159 0.859656
vt 0.548098 0.018311
vt 0.272036 0.875263
vt 0.548098 0.476062
vt 0.141766 0.881560
vt 0.510499 0.019545
vt 0.779865 0.476803
vt 0.309537 0.853461
vt 0.510499 0.477295
vt 0.141766 0.924897
vt 0.779865 0.018312
vt 0.823281 0.476803
vt 0.473876 0.019174
vt 0.347038 0.875037
vt 0.179159 0.946330
vt 0.823281 0.018312
vt 0.473876 0.477303
vt 0.682781 0.367163
vt 0.235414 0.787974
vt 0.715700 0.804421
vt 0.682781 0.677666
vt 0.622320 0.368550
vt 0.896839 0.513425
vt 0.175110 0.823033
vt 0.622320 0.679053
vt 0.896839 0.824173
vt 0.715700 0.734733
vt 0.858235 0.513425
vt 0.743242 0.020294
vt 0.141765 0.803848
vt 0.858235 0.824173
vt 0.743242 0.330541
vt 0.682451 0.715676
vt 0.682781 0.018312
vt 0.141765 0.734094
vt 0.682781 0.328557
vt 0.622320 0.750899
vt 0.622320 0.020294
vt 0.933462 0.824174
vt 0.202069 0.699035
vt 0.622320 0.330541
vt 0.622320 0.820587
vt 0.933462 0.513426
vt 0.972066 0.824174
vt 0.743242 0.368550
vt 0.235414 0.718220
vt 0.655569 0.839645
vt 0.972066 0.513426
vt 0.743242 0.679053
vt 0.292265 0.662413
vt 0.272036 0.699035
vt 0.018311 0.891498
vt 0.173599 0.662413
vt 0.272036 0.816839
vt 0.398678 0.513926
vt 0.259246 0.467760
vt 0.484027 0.831879
vt 0.018311 0.699036
vt 0.173599 0.467760
vt 0.398678 0.831879
vt 0.398678 0.708424
vt 0.018311 0.662413
vt 0.358868 0.699035
vt 0.105143 0.891498
vt 0.136977 0.662413
vt 0.358868 0.816839
vt 0.485509 0.513926
vt 0.484027 0.745047
vt 0.051330 0.467760
vt 0.105143 0.699036
vt 0.398678 0.745047
vt 0.136977 0.467760
vt 0.485509 0.708424
vt 0.779865 0.743187
vt 0.018312 0.203118
vt 0.089900 0.018311
vt 0.779865 0.920204
vt 0.858235 0.860796
vt 0.543950 0.642962
vt 0.104384 0.191669
vt 0.171872 0.046952
vt 0.543950 0.513918
vt 0.858235 0.941775
vt 0.821612 0.743187
vt 0.208495 0.246330
vt 0.280083 0.431137
vt 0.821612 0.920204
vt 0.899981 0.860796
vt 0.585697 0.642962
vt 0.294568 0.257780
vt 0.585697 0.513918
vt 0.362055 0.402497
vt 0.899981 0.941775
vt 0.981689 0.154906
vt 0.543950 0.825823
vt 0.171872 0.364784
vt 0.779865 0.513426
vt 0.981689 0.018312
vt 0.047380 0.431137
vt 0.939942 0.154906
vt 0.585697 0.825823
vt 0.362055 0.084664
vt 0.821612 0.513426
vt 0.939942 0.018312
vt 0.237564 0.018312
s 0
usemtl Material.001
f 1/1/1 2/4/1 4/8/1 3/5/1
f 3/6/2 4/9/2 6/14/2 5/11/2
f 5/12/3 6/15/3 8/19/3 7/17/3
f 7/17/4 8/19/4 10/24/4 9/21/4
f 4/10/5 2/3/5 12/30/5 10/25/5 8/20/5 6/16/5
f 9/22/6 10/26/6 12/31/6 11/27/6
f 11/28/7 12/32/7 2/4/7 1/1/7
f 1/2/8 3/7/8 5/13/8 7/18/8 9/23/8 11/29/8
f 13/33/1 14/36/1 16/40/1 15/37/1
f 15/38/2 16/41/2 18/46/2 17/43/2
f 17/44/3 18/47/3 20/51/3 19/49/3
f 19/49/4 20/51/4 22/56/4 21/53/4
f 16/42/5 14/35/5 24/62/5 22/57/5 20/52/5 18/48/5
f 21/54/6 22/58/6 24/63/6 23/59/6
f 23/60/7 24/64/7 14/36/7 13/33/7
f 13/34/8 15/39/8 17/45/8 19/50/8 21/55/8 23/61/8
f 25/65/6 26/68/6 28/74/6 27/71/6
f 27/72/8 28/75/8 32/86/8 31/83/8
f 31/84/2 32/87/2 30/80/2 29/77/2
f 29/78/5 30/81/5 26/69/5 25/66/5
f 27/73/9 31/85/9 29/79/9 25/67/9
f 32/88/10 28/76/10 26/70/10 30/82/10
f 33/90/6 34/91/6 36/96/6 35/95/6
f 35/94/11 36/97/11 40/106/11 39/104/11
f 39/105/2 40/107/2 38/101/2 37/100/2
f 37/99/12 38/102/12 34/92/12 33/89/12
f 37/99/13 33/89/13 42/112/13 44/118/13
f 40/108/14 36/98/14 34/93/14 38/103/14
f 41/109/15 43/115/15 44/119/15 42/113/15
f 35/94/16 39/104/16 43/116/16 41/110/16
f 33/90/6 35/95/6 41/111/6 42/114/6
f 39/105/2 37/100/2 44/120/2 43/117/2
